<?xml version="1.0" standalone="no"?>
<!DOCTYPE svg PUBLIC "-//W3C//DTD SVG 20010904//EN"
 "http://www.w3.org/TR/2001/REC-SVG-20010904/DTD/svg10.dtd">
<svg version="1.0" xmlns="http://www.w3.org/2000/svg"
 width="693.000000pt" height="443.000000pt" viewBox="0 0 693.000000 443.000000"
 preserveAspectRatio="xMidYMid meet">

<g transform="translate(0.000000,443.000000) scale(0.100000,-0.100000)"
fill="#000000" stroke="none">
<path d="M1525 4411 c-170 -27 -298 -93 -420 -216 -151 -150 -216 -307 -218
-520 -1 -133 23 -230 86 -349 112 -211 373 -384 582 -386 22 0 46 -4 54 -9 11
-7 14 -162 19 -880 l5 -871 24 0 23 0 0 880 0 880 33 0 c61 0 162 31 257 77
80 40 109 61 185 137 151 152 220 314 219 521 -2 288 -152 533 -407 661 -125
64 -314 95 -442 75z m243 -66 c46 -9 115 -34 172 -62 78 -38 109 -61 175 -127
128 -128 190 -268 201 -446 8 -124 -11 -214 -72 -338 -80 -165 -229 -291 -412
-349 -45 -14 -84 -24 -86 -22 -2 2 65 123 149 268 138 239 152 266 137 278 -9
7 -22 13 -28 13 -7 0 -81 -120 -165 -267 l-154 -266 -3 221 -2 222 -30 0 -30
0 0 -212 0 -212 -136 234 c-74 129 -139 239 -144 243 -13 14 -52 -12 -45 -31
3 -9 66 -121 140 -248 74 -128 135 -236 135 -240 0 -11 -89 3 -160 25 -96 30
-185 87 -271 171 -62 61 -85 94 -122 170 -101 207 -101 400 0 609 37 78 59
109 127 177 68 68 99 90 177 127 151 74 290 93 447 62z"/>
<path d="M4692 4386 c-145 -28 -267 -92 -381 -200 -148 -141 -223 -319 -224
-531 -1 -132 23 -228 86 -349 57 -112 189 -244 303 -304 87 -45 211 -82 278
-82 23 0 47 -4 55 -9 11 -7 14 -162 19 -880 l5 -871 24 0 23 0 0 880 0 880 28
0 c55 0 183 40 265 82 114 59 246 190 304 304 63 121 87 217 87 349 0 403
-301 718 -709 740 -55 3 -118 -1 -163 -9z m333 -76 c109 -34 191 -85 281 -174
90 -91 130 -155 169 -269 121 -362 -88 -754 -463 -867 -40 -12 -75 -21 -76
-19 -2 2 65 123 149 268 138 239 152 266 137 278 -9 7 -22 13 -28 13 -6 0 -78
-116 -160 -257 l-149 -258 -3 213 -2 212 -30 0 -30 0 -2 -222 -3 -221 -141
243 c-77 134 -145 245 -150 247 -6 2 -18 -3 -29 -11 -18 -13 -11 -26 122 -257
135 -234 140 -244 116 -247 -35 -5 -157 34 -238 76 -145 75 -281 248 -329 415
-91 319 87 688 393 812 144 59 324 68 466 25z"/>
<path d="M2630 3049 c-300 -187 -547 -343 -549 -345 -2 -1 10 -24 25 -49 33
-51 32 -51 114 1 405 255 954 594 961 594 8 0 261 -147 1006 -586 50 -30 95
-54 100 -54 4 0 20 21 34 48 l27 47 -573 337 c-315 186 -579 340 -586 343 -8
3 -259 -148 -559 -336z"/>
<path d="M3113 2866 c-92 -30 -157 -89 -200 -181 -56 -122 -29 -269 66 -364
157 -157 424 -115 521 82 17 34 33 85 36 113 17 137 -66 280 -195 337 -58 25
-170 32 -228 13z m67 -166 l0 -120 -120 0 c-66 0 -120 4 -120 8 0 5 7 29 16
54 21 63 78 126 138 154 87 41 86 42 86 -96z m140 99 c79 -35 137 -106 155
-186 l7 -33 -121 0 -121 0 0 120 c0 136 -1 136 80 99z m-140 -399 l0 -120 -27
6 c-37 9 -81 31 -120 61 -31 24 -93 131 -93 160 0 10 26 13 120 13 l120 0 0
-120z m300 111 c0 -24 -33 -97 -59 -130 -30 -38 -104 -83 -153 -95 l-28 -6 0
120 0 120 120 0 c66 0 120 -4 120 -9z"/>
<path d="M3119 2020 c-48 -25 -105 -92 -136 -157 -43 -93 -54 -185 -51 -448
l3 -240 270 0 270 0 3 247 c3 270 -6 344 -51 441 -31 67 -89 132 -138 157 -49
25 -122 25 -170 0z m278 -406 c8 -22 -10 -49 -32 -49 -10 0 -22 7 -28 16 -15
24 -1 49 28 49 15 0 28 -7 32 -16z"/>
<path d="M197 954 c-158 -49 -238 -284 -165 -483 64 -171 261 -235 443 -144
88 44 85 38 85 195 l0 138 -130 0 -130 0 0 -65 0 -65 65 0 65 0 0 -35 c0 -29
-6 -39 -32 -55 -37 -22 -106 -35 -137 -25 -31 10 -80 53 -97 87 -21 41 -29
162 -15 216 7 24 27 60 45 80 30 32 39 36 94 40 59 4 63 3 94 -30 18 -18 38
-41 43 -51 9 -17 15 -17 70 -4 55 13 60 16 57 38 -5 34 -47 104 -78 128 -61
48 -185 63 -277 35z"/>
<path d="M795 779 c-46 -13 -110 -80 -129 -135 -19 -55 -21 -150 -5 -205 27
-90 111 -150 208 -150 135 -1 223 96 224 247 1 180 -135 291 -298 243z m139
-139 c44 -53 43 -172 -2 -213 -46 -42 -118 -26 -141 31 -24 62 -17 143 15 181
36 43 91 44 128 1z"/>
<path d="M1279 780 c-72 -21 -134 -101 -148 -189 -9 -58 3 -150 24 -192 63
-121 246 -148 347 -52 87 83 95 255 17 365 -43 60 -159 93 -240 68z m134 -139
c43 -52 43 -157 -1 -210 -9 -12 -33 -24 -52 -27 -28 -5 -40 -1 -62 19 -53 49
-59 161 -11 218 19 23 33 29 63 29 30 0 44 -6 63 -29z"/>
<path d="M1801 764 c-30 -25 -31 -25 -31 -5 0 19 -6 21 -60 21 l-60 0 0 -240
0 -240 64 0 64 0 4 153 c2 128 6 157 22 181 16 26 22 28 61 22 l44 -5 15 53
c20 68 21 62 -15 75 -49 17 -75 13 -108 -15z"/>
<path d="M2180 783 c-8 -3 -27 -14 -41 -24 -26 -18 -27 -18 -32 1 -4 17 -14
20 -61 20 l-56 0 0 -240 0 -240 59 0 59 0 4 160 c3 142 6 163 24 187 26 34 72
43 91 17 9 -13 13 -65 13 -191 l0 -173 64 0 64 0 4 164 c3 159 4 165 28 191
31 32 69 30 87 -5 9 -17 13 -77 13 -187 l0 -163 66 0 67 0 -5 194 c-4 168 -8
198 -24 227 -42 73 -147 89 -219 34 l-36 -27 -22 20 c-43 39 -100 52 -147 35z"/>
<path d="M2680 768 c0 -7 34 -111 75 -231 41 -120 75 -229 75 -241 0 -13 -9
-35 -21 -50 -17 -21 -29 -26 -65 -26 l-44 0 6 -47 c4 -27 10 -52 15 -57 14
-15 112 -10 147 8 18 9 41 31 51 47 18 30 201 574 201 598 0 8 -19 11 -62 9
l-62 -3 -28 -95 c-16 -52 -36 -119 -44 -148 -9 -30 -19 -50 -24 -45 -6 7 -23
59 -86 276 -4 14 -17 17 -70 17 -45 0 -64 -4 -64 -12z"/>
</g>
</svg>
